<?xml version="1.0" encoding="UTF-8" standalone="no"?>
<svg
   xmlns:dc="http://purl.org/dc/elements/1.1/"
   xmlns:cc="http://creativecommons.org/ns#"
   xmlns:rdf="http://www.w3.org/1999/02/22-rdf-syntax-ns#"
   xmlns:svg="http://www.w3.org/2000/svg"
   xmlns="http://www.w3.org/2000/svg"
   xmlns:sodipodi="http://sodipodi.sourceforge.net/DTD/sodipodi-0.dtd"
   xmlns:inkscape="http://www.inkscape.org/namespaces/inkscape"
   version="1.1"
   id="Your_Icon"
   x="0px"
   y="0px"
   width="100px"
   height="100px"
   viewBox="0 0 100 100"
   enable-background="new 0 0 100 100"
   xml:space="preserve"
   inkscape:version="0.48.4 r9939"
   sodipodi:docname="pc_red.svg"
   inkscape:export-filename="C:\wamp\www\restart\pc_red.png"
   inkscape:export-xdpi="90"
   inkscape:export-ydpi="90"><metadata
   id="metadata3001"><rdf:RDF><cc:Work
       rdf:about=""><dc:format>image/svg+xml</dc:format><dc:type
         rdf:resource="http://purl.org/dc/dcmitype/StillImage" /></cc:Work></rdf:RDF></metadata><defs
   id="defs2999" /><sodipodi:namedview
   pagecolor="#ffffff"
   bordercolor="#666666"
   borderopacity="1"
   objecttolerance="10"
   gridtolerance="10"
   guidetolerance="10"
   inkscape:pageopacity="0"
   inkscape:pageshadow="2"
   inkscape:window-width="1440"
   inkscape:window-height="838"
   id="namedview2997"
   showgrid="false"
   inkscape:zoom="8.7822662"
   inkscape:cx="32.234945"
   inkscape:cy="34.351934"
   inkscape:window-x="-8"
   inkscape:window-y="-8"
   inkscape:window-maximized="1"
   inkscape:current-layer="Your_Icon" />
<path
   d="M 43.040761,59.530088 H 25.117349 c -1.768256,0 -3.214812,1.446556 -3.214812,3.214813 v 10.421533 c 0,1.768011 1.446556,3.214813 3.214812,3.214813 h 3.983874 l -0.128584,0.41814 c -0.157075,0.506535 -0.718894,0.920776 -1.249541,0.920776 h -0.460999 c -0.530647,0 -0.96437,0.433727 -0.96437,0.964618 v 0.823855 c 0,0.530403 0.433723,0.964124 0.96437,0.964124 h 13.449317 c 0.530648,0 0.964371,-0.433721 0.964371,-0.964124 v -0.823855 c 0,-0.530891 -0.433723,-0.964618 -0.964371,-0.964618 h -0.45978 c -0.530648,0 -1.092467,-0.414241 -1.249542,-0.920776 l -0.129313,-0.41814 h 4.16798 c 1.768013,0 3.214569,-1.446802 3.214569,-3.214813 V 62.744901 c 0,-1.768257 -1.446556,-3.214813 -3.214569,-3.214813 z m 0.642671,13.636346 c 0,0.348244 -0.294426,0.643161 -0.642914,0.643161 H 25.117349 c -0.348488,0 -0.642914,-0.294917 -0.642914,-0.643161 V 62.744901 c 0,-0.348489 0.294426,-0.642914 0.642914,-0.642914 h 17.923412 c 0.348489,0 0.642914,0.294425 0.642914,0.642914 v 10.421533 z"
   id="path2995"
   inkscape:export-filename="C:\wamp\www\restart\pc_red.png"
   inkscape:export-xdpi="90"
   inkscape:export-ydpi="90"
   inkscape:connector-curvature="0" />
</svg>